<svg xmlns="http://www.w3.org/2000/svg" viewBox="0 0 1116.14 717.72"><path d="M1111.98 352.33c1.38 39.09 2.73 78.19 3.37 117.31.59 36.49 4.08 75-10.8 109.29-3.82 8.8-10.73 14.32-19.11 18.15-44.07 20.19-88.1 40.46-132.32 60.32-26.5 11.91-53.13 23.5-79.73 35.16-24.94 10.94-49.25 26.33-77.21 25.09-35.94-1.58-71.88-3.41-107.84-4.34-30.79-.79-61.6-.75-92.4-.6-36.39.18-72.6-1.29-108.35-8.66-1.47-.31-2.9-.8-4.37-1.08-16.63-3.22-25.19-13.94-27.57-30.08a180.43 180.43 0 01-2.07-22.36q-.72-35.73-.74-71.48c0-4.63-1.27-6.27-6.15-6.47-40.43-1.65-80.86-3.59-121.29-5.45q-60.13-2.76-120.28-5.54c-9.25-.43-18.48-1-28.7-1.63 1.95-2.85 3.35-4.81 4.67-6.83 13.21-20.32 21.34-42.83 27.88-65.94 8.43-29.81 13.44-60.28 17.22-91 5.52-44.89 6.78-89.93 5.15-135.05-1.15-32-4.3-63.79-13.15-94.61-3.87-13.49-10.21-26.28-15.5-39.35-.47-1.18-1.09-2.29-1.78-3.73 4.57-.05 8.66-.37 12.71-.11q64.82 4.11 129.61 8.37 65.06 4.21 130.11 8.4c23.42 1.47 32.79 31.09 38.9 49.93 8.52 26.25 12.13 54.11 14.65 81.5.85 9.2.51 18.51.74 27.78.19 8.14.57 16.28.62 24.42.06 9.62.15 19.26-.31 28.87-.44 9.27-1.48 18.53-2.4 27.77-1.22 12.38-2.3 24.78-4 37.09-1.86 13.74-4 27.47-6.61 41.08a322.83 322.83 0 01-15.8 56c-7 17.82-16.16 31.88-27.06 47.19-.27.38 1.27 2.88 2.38 3.29 5.13 1.89 10.17 1 14.93-1.52 7.62-3.95 13.06-10.19 17.76-17.18 12.61-18.76 19.86-39.83 25.9-61.35 8.1-28.86 12.94-58.33 16.23-88.12a680.5 680.5 0 003.41-103.21c-1.4-33.61-5-67-15.48-99.21-4.08-12.6-8.5-25.38-18.57-34.88-3.59-3.39-7.65-6.26-12.38-10.08l79.81 12.82c1.58-10.16-5.45-22.56-15.88-27.07-17-7.34-34.46-13.26-53.07-15.16-8.13-.82-13.36-4.82-14.33-12.82-.83-6.93-.83-14.47 1-21.13 5.85-21.08 17.65-38.46 36.45-50.12 5.3-3.28 11.94-5.18 18.19-6 33.79-4.42 67.72-7.8 101.46-12.52 26-3.64 51.83-8.84 77.77-13.11a138.75 138.75 0 0117.43-1.3c16.89-.6 33.58-4.68 50.67-2.38a252.94 252.94 0 0028.35 1.78q27 .59 53.94.49a50.61 50.61 0 0119.35 3.74c9.22 3.67 18.82 6.4 28.18 9.73 4.05 1.44 7.78 3.92 11.9 5a93.89 93.89 0 0016.11 2.48c20.42 1.6 40.86 2.86 61.28 4.47 10.56.83 18.93 6.79 20 18 1.26 12.91 2.75 25.8 4 38.71.81 8.45 1.27 16.94 2.1 25.39a9.73 9.73 0 002 4.8c4.42 5.55 9.86 10.45 13.44 16.48 10.13 17 19.6 34.46 29.18 51.81 7.26 13.13 9.56 27.67 10.83 42.3 1.65 18.91 2.68 37.87 3.69 56.83M973.08 102.16c4.51-.34 10.49-.54 16.38-1.4a5.86 5.86 0 003.84-3.92c1-7.06 1.45-14.2 1.9-21.32.38-5.87-2.53-10.73-6.57-14.29-2.79-2.46-6.94-3.67-10.69-4.7-7-1.93-14.72-2.24-21.24-5.2a67 67 0 00-32.29-6.2c-14 .83-28.06 2.27-42 3.83a24.1 24.1 0 00-9.6 3.67c-1.65 1-1.84 4.62-3.48 5.41-3.59 1.74-3.28 4.67-3.53 7.53-.44 5-.63 9.94-1 14.91-.6 7 2.81 13.63 9.33 15.31 8.48 2.2 17.18 4.41 25.87 4.78 23.79 1.03 47.71 1.11 73.08 1.59zm-332.1 68.59c0 .22-.06.44-.1.66 3.85 3.08 7.92 5.93 11.49 9.3 9.54 9 14.06 20.93 18.07 32.9a257.63 257.63 0 0112.91 63.84c1.36 19.08 3.45 38.23 3 57.3-.68 27-2.7 54.13-5.51 81-3.19 30.66-9.69 60.8-21 89.57-8.52 21.69-16.91 43.93-40.87 54.78 8.5.45 14.82-3.4 20.31-8.74 13.5-13.13 21-29.85 27.28-47.13 17.94-49.31 24.24-100.69 25.86-152.72.88-27.95 0-56-3.83-83.74-3.5-25.27-8.11-50.38-20.36-73.08-4-7.36-10.54-13.51-16.64-19.47-2.61-2.45-7.04-2.97-10.61-4.47zm103.59 179.5l.87 36.54c.15 6.27.57 12.77 7.82 14.1a10.07 10.07 0 0011.83-8.2c2.5-12.34 5-24.77 6-37.29 1.44-18 .37-35.92-6-53.11-2.25-6-8.8-8.52-14.79-6.14-11.67 4.65-6.32 28-6.09 37.45zm-26.25-147.4c0 7.74 5.74 13.11 13.89 13 7.94-.08 13.5-5.38 13.55-12.92 0-7.23-6.39-13.36-14-13.37a13.4 13.4 0 00-13.44 13.29zm288.81-100.07l12.15 1.66c-3.93-5.19-6.67-5.43-12.15-1.66z"/><path d="M-.02 403c.26-80.08 5-146.43 21.78-211.35 4.47-17.32 11.08-34.17 17.8-50.79 2.92-7.23 8.2-13.67 13.15-19.86 4.66-5.82 11.27-7.85 18.86-6.77a122 122 0 0014.44 1 10.36 10.36 0 004.62-1.45c8.25-4.27 16.78-7.14 26.29-6.45 20.25 1.48 40.53 2.66 60.78 4.24 6.9.53 12.58 3.91 17 9.38 8.44 10.47 13 22.81 16.63 35.46a315.47 315.47 0 0112.2 71.08c1.53 28.74 3.4 57.56 2.83 86.31-1.27 65-8.21 129.35-27.48 191.81-5.8 18.79-12.77 37.18-25.48 52.71-6.32 7.72-14.38 11.49-24.47 11-19.45-1-38.91-2.22-58.37-2.82a39.29 39.29 0 01-21-7.05c-5.22-3.51-10.65-5.08-16.36-4.48-17 1.79-25.7-7.75-31.83-21.72-8.32-19-12.78-39-15.08-59.33C3.15 445.93 1.28 417.85-.02 403zm16.43-17.45c1.25 19.26 2.24 38.54 3.8 57.77 1.69 20.91 5.16 41.55 11.72 61.54 3.06 9.35 6.78 18.41 13.8 25.73 2.83 2.95 5.43 3.07 8 .13 3.5-4 7.82-7.68 10-12.35 6.27-13.71 12.7-27.51 17.14-41.87 9.77-31.51 15.22-64 18-96.83 2.26-26.65 4.1-53.38 4.84-80.11a530.7 530.7 0 00-4.78-89.14c-2.58-18.29-5.54-36.53-12.75-53.66-2.6-6.2-6.63-11.83-10.24-17.57-1.81-2.88-4.21-3-7.15-.94-7.2 5.11-11.55 12.37-15.45 19.93-8.38 16.21-13.64 33.56-17.89 51.2-13.97 57.87-18.84 116.74-19.02 176.17z"/><path d="M973.08 102.16c-25.37-.48-49.29-.56-73.17-1.59-8.69-.37-17.39-2.58-25.87-4.78-6.52-1.68-9.93-8.27-9.33-15.31.42-5 .61-10 1-14.91.25-2.86-.06-5.79 3.53-7.53 1.64-.79 1.83-4.37 3.48-5.41a24.1 24.1 0 019.6-3.67c14-1.56 28-3 42-3.83a67 67 0 0132.29 6.2c6.52 3 14.2 3.27 21.24 5.2 3.75 1 7.9 2.24 10.69 4.7 4 3.56 6.95 8.42 6.57 14.29-.45 7.12-.94 14.26-1.9 21.32a5.86 5.86 0 01-3.84 3.92c-5.8.86-11.78 1.06-16.29 1.4zm-332.1 68.59c3.58 1.45 8 2 10.58 4.52 6.1 6 12.66 12.11 16.64 19.47 12.25 22.7 16.86 47.81 20.36 73.08 3.84 27.78 4.71 55.79 3.83 83.74-1.62 52-7.92 103.41-25.86 152.72-6.29 17.28-13.78 34-27.28 47.13-5.49 5.34-11.81 9.19-20.31 8.74 24-10.85 32.35-33.09 40.87-54.78 11.3-28.77 17.8-58.91 21-89.57 2.81-26.92 4.83-54 5.51-81 .49-19.07-1.6-38.22-3-57.3a257.63 257.63 0 00-12.91-63.84c-4-12-8.53-23.92-18.07-32.9-3.57-3.37-7.64-6.22-11.49-9.3.06-.27.13-.49.13-.71zm103.19 179.5c-.17-14-.37-28-.5-42 0-5.23.86-9.87 6.58-12.15 6-2.38 12.55.1 14.8 6.14 6.41 17.19 7.48 35.14 6 53.11-1 12.52-3.5 25-6 37.29-1.59 7.81-9.58 10.78-16.36 6.3-1.76-1.16-2.89-4.43-3-6.78-.44-14-.47-28-.64-42zm-25.85-147.4a13.4 13.4 0 0113.41-13.25c7.64 0 14.08 6.14 14 13.37 0 7.54-5.61 12.84-13.55 12.92-8.12.07-13.84-5.3-13.86-13.04zm288.81-100.07c5.48-3.77 8.22-3.55 12.15 1.66zM16.43 385.55c.18-59.43 5.05-118.28 19-176.17 4.25-17.64 9.51-35 17.89-51.2 3.9-7.56 8.25-14.82 15.45-19.93 2.94-2.09 5.34-1.94 7.15.94 3.61 5.74 7.64 11.37 10.24 17.57 7.21 17.13 10.17 35.37 12.75 53.66a530.7 530.7 0 014.78 89.14c-.74 26.73-2.58 53.46-4.84 80.11-2.79 32.83-8.24 65.32-18 96.83-4.44 14.36-10.87 28.16-17.14 41.87-2.13 4.67-6.45 8.37-10 12.35-2.57 2.94-5.17 2.82-8-.13-6.98-7.34-10.73-16.34-13.73-25.73-6.56-20-10-40.63-11.72-61.54-1.59-19.23-2.58-38.51-3.83-57.77z" fill="#fff"/></svg>