<svg id="camera" xmlns="http://www.w3.org/2000/svg" viewBox="0 0 1116.14 717.72"><defs><style>.cls-1{fill:none;}.cls-2{fill:#fff;}</style></defs><title>camera</title><path class="cls-1" d="M1211.59,545l.87,36.54a48.47,48.47,0,0,0,.32,5c-.42-13.85-.46-27.71-.63-41.57Z" transform="translate(-467.02 -194.75)"/><path class="cls-1" d="M1211.05,498.29c-2.4,7.57-.8,18.7-.12,26.14q-.14-10.71-.24-21.41A23.29,23.29,0,0,1,1211.05,498.29Z" transform="translate(-467.02 -194.75)"/><path class="cls-1" d="M1217.28,490.87h0l.59-.2Z" transform="translate(-467.02 -194.75)"/><path class="cls-1" d="M1220.28,595.61l.37,0-.84-.16Z" transform="translate(-467.02 -194.75)"/><path class="cls-1" d="M1219.53,595.43a12.93,12.93,0,0,1-2.11-.79A9.86,9.86,0,0,0,1219.53,595.43Z" transform="translate(-467.02 -194.75)"/><path class="cls-2" d="M979.26,384.79c8.52,26.25,12.13,54.11,14.65,81.5.85,9.2.51,18.51.74,27.78.19,8.14.57,16.28.62,24.42.06,9.62.15,19.26-.31,28.87-.44,9.27-1.48,18.53-2.4,27.77-1.22,12.38-2.3,24.78-4,37.09-1.86,13.74-4,27.47-6.61,41.08a322.83,322.83,0,0,1-15.8,56c-7,17.82-16.16,31.88-27.06,47.19-.27.38,1.27,2.88,2.38,3.29,5.13,1.89,10.17,1,14.93-1.52,7.62-3.95,13.06-10.19,17.76-17.18,12.61-18.76,19.86-39.83,25.9-61.35,8.1-28.86,12.94-58.33,16.23-88.12a680.5,680.5,0,0,0,3.41-103.21c-1.4-33.61-5-67-15.48-99.21-4.08-12.6-8.5-25.38-18.57-34.88-3.25-3.07-6.9-5.72-11.07-9l-19.11-4.62C968.28,350.52,974.68,370.68,979.26,384.79Z" transform="translate(-467.02 -194.75)"/><path class="cls-2" d="M648.12,747.88c13.21-20.32,21.34-42.83,27.88-65.94,8.43-29.81,13.44-60.28,17.22-91,5.52-44.89,6.78-89.93,5.15-135.05-1.15-32-4.3-63.79-13.15-94.61C681.34,347.79,675,335,669.71,321.93c-.31-.77-.68-1.51-1.09-2.33l-3.66.47c6.42,9.46,10.23,20.15,13.4,31.08a315.47,315.47,0,0,1,12.2,71.08c1.53,28.74,3.4,57.56,2.83,86.31-1.27,65-8.21,129.35-27.48,191.81-5.8,18.79-12.77,37.18-25.48,52.71-.69.84-1.4,1.63-2.14,2.38l5.26-.72h-.1C645.4,751.86,646.8,749.9,648.12,747.88Z" transform="translate(-467.02 -194.75)"/><path class="cls-2" d="M681,318.11l0-.11-.62.08h.26Z" transform="translate(-467.02 -194.75)"/><path d="M1582.38,664.39c-.64-39.12-2-78.22-3.37-117.31l-1.86-69.66c-1-19-2-37.92-3.69-56.83-1.27-14.63-3.57-29.17-10.83-42.3-9.58-17.35-19.05-34.78-29.18-51.81-3.58-6-9-10.93-13.44-16.48a9.73,9.73,0,0,1-2-4.8c-.83-8.45-1.29-16.94-2.1-25.39-1.24-12.91-2.73-25.8-4-38.71-1.09-11.2-9.46-17.16-20-18-20.42-1.61-40.86-2.87-61.28-4.47a93.89,93.89,0,0,1-16.11-2.48c-4.12-1-7.85-3.53-11.9-5-9.36-3.33-19-6.06-28.18-9.73a50.61,50.61,0,0,0-19.35-3.74q-27,.1-53.94-.49a252.94,252.94,0,0,1-28.35-1.78c-17.09-2.3-33.78,1.78-50.67,2.38a138.75,138.75,0,0,0-17.43,1.3c-25.94,4.27-51.74,9.47-77.77,13.11-33.74,4.72-67.67,8.1-101.46,12.52-6.25.82-12.89,2.72-18.19,6-18.8,11.66-30.6,29-36.45,50.12-1.85,6.66-1.85,14.2-1,21.13,1,8,6.23,12,14.37,12.82,18.61,1.9,36.07,7.82,53.07,15.16,10.43,4.51,17.46,16.91,15.88,27.07l-79.81-12.82,1.31,1.05c4.17,3.31,7.82,6,11.07,9,10.07,9.5,14.49,22.28,18.57,34.88,10.43,32.19,14.08,65.6,15.48,99.21a680.5,680.5,0,0,1-3.41,103.21c-3.29,29.79-8.13,59.26-16.23,88.12-6,21.52-13.29,42.59-25.9,61.35-4.7,7-10.14,13.23-17.76,17.18-4.76,2.47-9.8,3.41-14.93,1.52-1.11-.41-2.65-2.91-2.38-3.29,10.9-15.31,20.1-29.37,27.06-47.19a322.83,322.83,0,0,0,15.8-56c2.64-13.61,4.75-27.34,6.61-41.08,1.66-12.31,2.74-24.71,4-37.09.92-9.24,2-18.5,2.4-27.77.46-9.61.37-19.25.31-28.87,0-8.14-.43-16.28-.62-24.42-.23-9.27.11-18.58-.74-27.78-2.52-27.39-6.13-55.25-14.65-81.5-4.58-14.11-11-34.27-23.75-44.12a27.13,27.13,0,0,0-15.15-5.81q-65.05-4.08-130.11-8.4-64.61-4.2-129.22-8.35l-.39,0h-.26c-4-.23-8,.07-12.45.12.24.5.47,1,.69,1.4.41.82.78,1.56,1.09,2.33,5.26,13.09,11.63,25.86,15.51,39.35,8.85,30.82,12,62.65,13.15,94.61,1.63,45.12.37,90.16-5.15,135.05-3.78,30.72-8.79,61.19-17.22,91-6.54,23.11-14.67,45.62-27.88,65.94-1.32,2-2.72,4-4.67,6.83h.1c10.17.58,19.38,1.19,28.6,1.62q60.14,2.82,120.28,5.54c40.43,1.86,80.86,3.8,121.29,5.45,4.88.2,6.14,1.84,6.15,6.47q.07,35.75.74,71.48a180.43,180.43,0,0,0,2.07,22.36c2.38,16.14,10.94,26.86,27.57,30.08,1.47.28,2.9.77,4.37,1.08,35.75,7.37,72,8.84,108.35,8.66,30.8-.15,61.61-.19,92.4.6,36,.93,71.9,2.76,107.84,4.34,28,1.24,52.27-14.15,77.21-25.09,26.6-11.66,53.23-23.25,79.73-35.16,44.22-19.86,88.25-40.13,132.32-60.32,8.38-3.83,15.29-9.35,19.11-18.15C1586.46,739.34,1583,700.88,1582.38,664.39Zm-423-118.08c-1.62,52-7.92,103.41-25.86,152.72-6.29,17.28-13.78,34-27.28,47.13-5.49,5.34-11.81,9.19-20.31,8.74,24-10.85,32.35-33.09,40.87-54.78,11.3-28.77,17.8-58.91,21-89.57,2.81-26.92,4.83-54,5.51-81,.49-19.07-1.6-38.22-3-57.3a257.63,257.63,0,0,0-12.91-63.84c-4-12-8.53-23.92-18.07-32.9-3.57-3.37-7.64-6.22-11.49-9.3,0-.22.07-.44.1-.66,3.58,1.45,8,2,10.58,4.52,6.1,6,12.66,12.11,16.64,19.47,12.25,22.7,16.86,47.81,20.36,73.08C1159.41,490.35,1160.28,518.36,1159.4,546.31Zm39.83-135.67c-8.15.07-13.87-5.3-13.89-13a13.4,13.4,0,0,1,13.41-13.25c7.64,0,14.08,6.14,14,13.37C1212.73,405.26,1207.17,410.56,1199.23,410.64Zm38.88,139.48c-1,12.52-3.5,25-6,37.29-.09.4-.19.79-.31,1.17s-.17.48-.25.72a1.54,1.54,0,0,0-.08.19,9.69,9.69,0,0,1-9.94,6.27l-.31,0-.57-.08-.37,0-.47-.11-.28-.07a9.86,9.86,0,0,1-2.11-.79,14.6,14.6,0,0,1-1.67-.93c-1.76-1.16-2.89-4.43-3-6.78,0-.13,0-.26,0-.4a48.47,48.47,0,0,1-.32-5l-.87-36.54h-.4q-.14-10.28-.26-20.55c-.68-7.44-2.28-18.57.12-26.14a9.43,9.43,0,0,1,6.22-7.42h0l.59-.2.54-.19c.19-.06.39-.09.58-.14l.55-.14.71-.1c.14,0,.28-.05.42-.06l.62,0,.51,0,.49,0c.21,0,.42,0,.62,0l.5.07.59.08c.3.06.59.14.88.22l.18,0,.7.24.32.11c.18.07.34.16.52.24l.46.22c.19.1.37.22.56.33l.36.21.62.46.25.19a10.72,10.72,0,0,1,2,2.26c0,.08.11.15.16.22a2.39,2.39,0,0,0,.12.22,10.91,10.91,0,0,1,.91,1.88C1238.48,514.2,1239.55,532.15,1238.11,550.12Zm224.11-279.85c-.45,7.12-.94,14.26-1.9,21.32a5.86,5.86,0,0,1-3.84,3.92c-5.89.86-11.87,1.06-16.38,1.4-25.37-.48-49.29-.56-73.17-1.59-8.69-.37-17.39-2.58-25.87-4.78-6.52-1.68-9.93-8.27-9.33-15.31.42-5,.61-10,1-14.91.25-2.86-.06-5.79,3.53-7.53,1.64-.79,1.83-4.37,3.48-5.41a24.1,24.1,0,0,1,9.6-3.67c14-1.56,28-3,42-3.83a67,67,0,0,1,32.29,6.2c6.52,3,14.2,3.27,21.24,5.2,3.75,1,7.9,2.24,10.69,4.7C1459.69,259.54,1462.6,264.4,1462.22,270.27Zm11.93,27.26c5.48-3.77,8.22-3.55,12.15,1.66Z" transform="translate(-467.02 -194.75)"/><path d="M665.91,700.35c19.27-62.46,26.21-126.83,27.48-191.81.57-28.75-1.3-57.57-2.83-86.31a315.47,315.47,0,0,0-12.2-71.08c-3.17-10.93-7-21.62-13.4-31.08-1-1.49-2.08-2.95-3.23-4.38-4.41-5.47-10.09-8.85-17-9.38-20.25-1.58-40.53-2.76-60.78-4.24-9.51-.69-18,2.18-26.29,6.45a10.36,10.36,0,0,1-4.62,1.45,122,122,0,0,1-14.44-1c-7.59-1.08-14.2.95-18.86,6.77-5,6.19-10.23,12.63-13.15,19.86-6.72,16.62-13.33,33.47-17.8,50.79C472.06,451.32,467.28,517.67,467,597.75c1.28,14.85,3.15,42.93,6.3,70.86,2.3,20.35,6.76,40.37,15.08,59.33,6.13,14,14.83,23.51,31.83,21.72,5.71-.6,11.14,1,16.36,4.48a39.29,39.29,0,0,0,21,7.05c19.46.6,38.92,1.77,58.37,2.82a27.71,27.71,0,0,0,22.33-8.57c.74-.75,1.45-1.54,2.14-2.38C653.14,737.53,660.11,719.14,665.91,700.35Zm-95.2-206c-.74,26.73-2.58,53.46-4.84,80.11-2.79,32.83-8.24,65.32-18,96.83-4.44,14.36-10.87,28.16-17.14,41.87-2.13,4.67-6.45,8.37-10,12.35-2.57,2.94-5.17,2.82-8-.13C505.75,718,502,709,499,699.61c-6.56-20-10-40.63-11.72-61.54-1.56-19.23-2.55-38.51-3.8-57.77.18-59.43,5.05-118.28,19-176.17,4.25-17.64,9.51-35,17.89-51.2,3.9-7.56,8.25-14.82,15.45-19.93,2.94-2.09,5.34-1.94,7.15.94,3.61,5.74,7.64,11.37,10.24,17.57,7.21,17.13,10.17,35.37,12.75,53.66A530.7,530.7,0,0,1,570.71,494.31Z" transform="translate(-467.02 -194.75)"/><path class="cls-2" d="M1455.65,256c-2.79-2.46-6.94-3.67-10.69-4.7-7-1.93-14.72-2.24-21.24-5.2a67,67,0,0,0-32.29-6.2c-14,.83-28.06,2.27-42,3.83a24.1,24.1,0,0,0-9.6,3.67c-1.65,1-1.84,4.62-3.48,5.41-3.59,1.74-3.28,4.67-3.53,7.53-.44,5-.63,9.94-1,14.91-.6,7,2.81,13.63,9.33,15.31,8.48,2.2,17.18,4.41,25.87,4.78,23.88,1,47.8,1.11,73.17,1.59,4.51-.34,10.49-.54,16.38-1.4a5.86,5.86,0,0,0,3.84-3.92c1-7.06,1.45-14.2,1.9-21.32C1462.6,264.4,1459.69,259.54,1455.65,256Z" transform="translate(-467.02 -194.75)"/><path class="cls-2" d="M1135.21,389.49c-4-7.36-10.54-13.51-16.64-19.47-2.56-2.5-7-3.07-10.58-4.52,0,.22-.06.44-.1.66,3.85,3.08,7.92,5.93,11.49,9.3,9.54,9,14.06,20.93,18.07,32.9a257.63,257.63,0,0,1,12.91,63.84c1.36,19.08,3.45,38.23,3,57.3-.68,27-2.7,54.13-5.51,81-3.19,30.66-9.69,60.8-21,89.57-8.52,21.69-16.91,43.93-40.87,54.78,8.5.45,14.82-3.4,20.31-8.74,13.5-13.13,21-29.85,27.28-47.13,17.94-49.31,24.24-100.69,25.86-152.72.88-27.95,0-56-3.83-83.74C1152.07,437.3,1147.46,412.19,1135.21,389.49Z" transform="translate(-467.02 -194.75)"/><path class="cls-2" d="M1231.16,495.13a2.39,2.39,0,0,1-.12-.22c0-.07-.11-.14-.16-.22a10.72,10.72,0,0,0-2-2.26l-.25-.19-.62-.46-.36-.21c-.19-.11-.37-.23-.56-.33l-.46-.22c-.18-.08-.34-.17-.52-.24l-.32-.11-.7-.24-.18,0c-.29-.08-.58-.16-.88-.22l-.59-.08-.5-.07c-.2,0-.41,0-.62,0l-.49,0-.51,0-.62,0c-.14,0-.28,0-.42.06l-.71.1-.55.14c-.19.05-.39.08-.58.14l-.54.19-.59.2h0a9.43,9.43,0,0,0-6.22,7.42,23.29,23.29,0,0,0-.36,4.73q.11,10.69.24,21.41.12,10.27.26,20.55h1c.17,13.86.21,27.72.63,41.57,0,.14,0,.27,0,.4.07,2.35,1.2,5.62,3,6.78a14.6,14.6,0,0,0,1.67.93,12.93,12.93,0,0,0,2.11.79l.28.07.84.16.57.08.31,0a9.69,9.69,0,0,0,9.94-6.27,1.54,1.54,0,0,1,.08-.19c.08-.24.17-.47.25-.72s.22-.77.31-1.17c2.5-12.34,5-24.77,6-37.29,1.44-18,.37-35.92-6-53.11A10.91,10.91,0,0,0,1231.16,495.13Z" transform="translate(-467.02 -194.75)"/><path class="cls-2" d="M1198.75,384.35a13.4,13.4,0,0,0-13.41,13.25c0,7.74,5.74,13.11,13.89,13,7.94-.08,13.5-5.38,13.55-12.92C1212.83,390.49,1206.39,384.36,1198.75,384.35Z" transform="translate(-467.02 -194.75)"/><path class="cls-2" d="M1474.15,297.53l12.15,1.66C1482.37,294,1479.63,293.76,1474.15,297.53Z" transform="translate(-467.02 -194.75)"/><path class="cls-2" d="M553.18,351.51c-2.6-6.2-6.63-11.83-10.24-17.57-1.81-2.88-4.21-3-7.15-.94-7.2,5.11-11.55,12.37-15.45,19.93-8.38,16.21-13.64,33.56-17.89,51.2-13.95,57.89-18.82,116.74-19,176.17,1.25,19.26,2.24,38.54,3.8,57.77,1.69,20.91,5.16,41.55,11.72,61.54,3.06,9.35,6.78,18.41,13.8,25.73,2.83,2.95,5.43,3.07,8,.13,3.5-4,7.82-7.68,10-12.35,6.27-13.71,12.7-27.51,17.14-41.87,9.77-31.51,15.22-64,18-96.83,2.26-26.65,4.1-53.38,4.84-80.11a530.7,530.7,0,0,0-4.78-89.14C563.35,386.88,560.39,368.64,553.18,351.51Z" transform="translate(-467.02 -194.75)"/></svg>