<svg xmlns="http://www.w3.org/2000/svg" xmlns:xlink="http://www.w3.org/1999/xlink" viewBox="0 0 917.1 824.67"><defs><symbol id="Dice_Map_5" data-name="Dice Map 5" viewBox="0 0 91 91"><path d="M85.54 16A9.54 9.54 0 1176 6.46 9.54 9.54 0 0185.54 16zM55 45.5a9.54 9.54 0 11-9.5-9.5 9.54 9.54 0 019.5 9.5zM24.48 76.06a9.54 9.54 0 11-9.54-9.54 9.54 9.54 0 019.54 9.54zM15.44 6a9.54 9.54 0 11-9.54 9.5A9.54 9.54 0 0115.44 6zM75.5 67a9.54 9.54 0 11-9.5 9.56A9.54 9.54 0 0175.5 67z"/><path fill="none" d="M0 0h91v91H0z"/></symbol><style>.cls-2,.cls-3{fill:#fff}.cls-2{stroke:#000;stroke-miterlimit:10}</style></defs><g id="Layer_6" data-name="Layer 6"><ellipse class="cls-2" cx="535.93" cy="483.06" rx="34.5" ry="14"/><ellipse class="cls-2" cx="520.93" cy="450.56" rx="19.5" ry="8.5"/><path class="cls-2" d="M74.05 487.03l-54.81 37.32 131.19-4.34 53.01-37.85-129.39 4.87m275.71-205.22l-25.13 34.11 12.56 10.09 398.24 1.05 18.31-3.88.69-7.47-18-41.1-386.67 7.2M205.62 434.67L215.6 375l11.84-38.94 17.93-25.88 36.1-8.16 34.97 2.04 14.35 1 2.59-7-44.94-2-45 9-13 10-9 17-6.04 22.12-16.96 77.88"/><path class="cls-2" d="M348.16 214.83c-30.7 1-62.85 2.2-90.36 17.46-11.31 6.27-21.46 14.8-28.73 25.57-7.65 11.34-11.63 24.62-13.4 38.08-2.19 16.58-1.2 33.37 0 50 .13 1.9 3.11 1.91 3 0-2.38-34.25-3.83-73.11 23.37-98.6 28.37-26.59 69.5-28.35 106.19-29.53 1.84-.07 1.85-3.04-.07-2.98zm103.48 262.01c-56.57-12.31-115.17-4.13-171.88-15.13a192.79 192.79 0 01-46.85-15.15c-1.72-.83-3.23 1.74-1.5 2.57 52.57 25.28 112.15 20.31 168.74 23.94a340.57 340.57 0 0150.7 6.64c1.87.41 2.66-2.46.79-2.87zm376.91-8.33a1445.71 1445.71 0 01-184.07-.61c-1.91-.13-1.9 2.85 0 3a1445.71 1445.71 0 00184.07.61c1.91-.14 1.92-3.11 0-3zm-368.26-15.92a20.09 20.09 0 00-14.22-1.86c-1.87.44-1.08 3.31.79 2.87a16.85 16.85 0 0111.92 1.56c1.7.9 3.22-1.67 1.51-2.57zm31.14-8.02h-24a1.49 1.49 0 000 3h24a1.49 1.49 0 000-3zm338.64 239.16l-.15-1.67c-.16-1.9-3.14-1.91-3 0 .26 2.93.51 5.86.77 8.8a1.49 1.49 0 003 0l.22-5.8a1.28 1.28 0 00-.84-1.33zm24.37-427.29c-25.7-38.61-75.64-41.73-117.59-42.91-1.92-.05-1.92 2.92 0 3 40.75 1.15 90 3.81 115 41.43 1.08 1.57 3.66.04 2.59-1.52z"/><path class="cls-3" d="M830 688.62l-19 8c-1.74.73-1 3.62.79 2.87l19-8c1.78-.73 1.02-3.61-.79-2.87z"/><path class="cls-3" d="M815.12 691.92a16.24 16.24 0 00-11.21 17.14c.21 1.88 3.19 1.91 3 0a13.33 13.33 0 019-14.27c1.82-.58 1.09-3.46-.79-2.87z"/><path class="cls-3" d="M829.43 689.57a45.14 45.14 0 00-24.75 8.2c-1.56 1.09-.07 3.67 1.5 2.57a42.33 42.33 0 0123.25-7.79c1.92-.06 1.92-3.04 0-2.98zM819.53 321a83.74 83.74 0 00-71.36-22.57c-1.89.3-1.09 3.17.79 2.87a80.59 80.59 0 0168.47 21.81c1.37 1.28 3.48-.82 2.1-2.11zm39.08 380.9c-5-5.62-14.47-11.44-21.81-13.15-1.86-.43-2.66 1.44-.79 1.87a33.23 33.23 0 0117.5 10.38c1.28 1.43 6.38 2.32 5.1.9z"/></g><g id="Layer_1" data-name="Layer 1"><path d="M213.43 362.06c0-5.5.29-11-.09-16.5-.29-4.31 1.25-8.34 1.12-12.59s-.63-8.77.15-13 .09-8.21 1-12.08c1.27-5.57.28-11.46 2.8-16.82.78-1.67-.5-3.7.93-5.65 1-1.37.66-3.67 1.16-5.48a51.5 51.5 0 012-5.18c.64-1.57 1.42-3.09 2-4.68a59.34 59.34 0 019.11-16.19c2.78-3.63 6.34-6.69 9.72-9.82 1.48-1.37 3.59-2.07 5-3.47 2.21-2.19 4.91-3.3 7.6-4.65 3.31-1.66 6.61-3.37 9.89-5.07 3.69-1.9 7.63-2.55 11.42-3.84 1.18-.4 2.38-.72 3.59-1 2.89-.68 5.59-1.85 8.65-2.19 2.87-.33 5.72-1.41 8.67-1.94 4.55-.81 9.11-1.38 13.66-2.08 3.57-.55 7.2-.11 10.59-.93 6-1.46 12.09-.47 18.11-.91 1.21-.09 2.37-.77 3.59-.92a36.89 36.89 0 014.4 0v-10.39c.37-25.69-.17-51.38.78-77.09s.19-51.66.26-77.49c0-2 .75-4.05.92-6.09s-.61-4.3.17-5.93c1.65-3.5 3.27-7.18 7.2-9a28 28 0 0111.28-3h333.5c5.83 0 11.66.07 17.49 0a11.11 11.11 0 016.78 1.82c3.82 2.56 7.47 5.09 7.61 10.3 1.53 1.83 1 4 1 6.08 0 21.84-.77 43.71.26 65.49.82 17.22.47 34.4.7 51.6s0 34.33.06 51.49a3.63 3.63 0 00.13.72c7 3.14 14.33 2.56 21.59 2.5 5.39 0 10.65 1.72 16.08 1 2.21 1.44 4.86.41 7 1.14s4.46.49 6.62.92c4.89 1 9.71 2.28 14.55 3.46 1 1.64 2.58-1.6 3.48.47 1.41-.43 2.41.59 3.59 1 1.33.44 2.72.69 4.08 1a10.84 10.84 0 011.8.48c4.91 2.22 9.92 4.27 14.68 6.78a89.8 89.8 0 018.55 4.65c5.65 3.8 11.31 7.88 15.44 13.37 4.57 6.08 9 12.31 11.47 19.73 1 2.9 2.37 5.68 3.13 8.69.48 1.95 1.28 3.82 1.73 5.78s.67 4 1 6.07c.29 1.54.67 3.06 1 4.59s-.66 3 .78 4.2c.27.23.24.92.21 1.39-.4 7.06 1.32 14 1.16 21.08-.11 4.66 1.07 9.34.89 14.09s-.74 9.46.13 14c1.32 6.9.59 13.75.79 20.61s0 13.67.08 20.5c0 2.61-1.46 4.89-1.11 7.6s.63 5.48-.07 7.95c-.82 2.9-.32 5.83-.95 8.6-1.38 6.11-1.11 12.57-3.9 18.37.49 4.74-3.63 7.83-4.39 12.21-.29 1.67-2 3.26-3.43 4.52-3.45 3.13-6 7.4-10.78 8.95a11.39 11.39 0 00-3.48 2.42c-3.09 2.6-7 3.21-10.93 4.92 0 7.62.6 15.63-.12 23.52-1.61 17.7-.61 35.4-.83 53.1s-.05 35.33-.05 53c-1.94 9.64-.75 19.39-.95 29.08s-.05 19.33-.05 29v32c.12 2 .56 2.31 3.09 2.79 2 .38 4.58.69 4.76 3.06a2.87 2.87 0 003.07 2.75c2.25-.18 4 1 6.1 1.22a18.26 18.26 0 014.08 1 2.81 2.81 0 011.5 1.13c1.2 2.16 2.65 4.28 3.3 6.62a33.6 33.6 0 011 8.55c.09 16.17.2 32.34 0 48.5-.07 4.68-1.23 9.35-.91 14.09-1.65 2.35-.92 5-1 7.59 0 2.26-1 4.31-1.22 6.56a66.26 66.26 0 01-2 9.64c-1 3.65-3.6 7.09-7.43 8.11-2.7.73-5 2.84-8.06 2.4-.67-.09-1.42.67-2.16.75-2.05.22-4.05 0-6.15.86a5.14 5.14 0 01-5.18-.46 2 2 0 00-1.33-.35c-4.94.4-9.21-1.67-13.54-3.56-.14-.07-.22-.3-.36-.34-1.8-.49-3.87-.55-5.33-1.54s-2.34-3-3.64-4.4c-1.71-1.84-2.28-3.94-2.8-6.38-.58-2.73-.4-5.47-.95-8.1a32.59 32.59 0 01-.91-7.61c.1-2.83.48-5.76-.06-8.48-1.77-8.85-.66-17.74-.87-26.6s.18-18-.15-27c-.15-4.14 1-8 1.27-12.08.19-2.61 1.92-5.15 3.13-7.64a2.49 2.49 0 011.91-1.22c2.89.27 5.09-1.65 7.48-2.57A22.14 22.14 0 01819 694c1.87-.1 3.71-.75 5.59-.91s3.89 0 6.35 0c-.59-1.11-.75-1.94-1.18-2.11-2.56-1.05-3-2.84-3.51-5.55-.87-5-1.3-9.8.15-14.72a13 13 0 000-3.48v-122c0-8 1.45-16 1.08-24.09s-.08-16-.08-24v-24.5c-2.26-2-4.16.64-6.32.53-1.51-.08-3 .74-4.59.87a30.67 30.67 0 00-4.11.93c-3.1.71-6.36.74-9.55 1.13-2 .25-4.06.68-6.09 1s-4.28-.73-6.11 1c-.17.16-.64 0-1 0-6.9-.51-13.67 1.78-20.58 1-12.82 1.84-25.72.67-38.59 1-7.28 2-14.8 1.44-22.07.82-15.87-1.36-31.74-.43-47.6-.82-3.94-1.4-8-1-12.08-1-2.75 0-3.27.62-3.32 3.53v6c-.07 4.26-2.26 7.13-6 8.93-1.91.93-1.9.89-4.08-1a1.75 1.75 0 00-1.64-.18 7.82 7.82 0 01-6.27 1.62c-2.5-.28-4 1-5 3-.48 1-.94 1.94-1.45 3h-35.89q-52.24 0-104.5-.05c-4.53 0-9.06-.56-13.58-1a3.78 3.78 0 01-2.37-1.37c-.62-.82-.67-2.07-1.21-3a2.67 2.67 0 00-2.77-1.63c-1.15.15-2.35-.1-3.49.06A4.07 4.07 0 01453 495c-3.66 3.53-4.67 3.24-8.09.07a9.7 9.7 0 01-3.5-8.58 43.88 43.88 0 000-5 2.36 2.36 0 00-2.41-2.46h-38c-5.79 1.67-11.72.87-17.59 1s-11.67-.12-17.49.06c-6.08.18-12-1.5-18.1-1.12s-12.08.73-18-.11-11.48-.14-17.09-1c-4.06-.6-8.17-.24-12.07-1a75.8 75.8 0 00-8.12-.84c-1.72-.16-3.4-.65-5.09-1-1.54-.29-3 0-4.69-.81s-4.27-.41-6.52-1.05c-4.09-1.16-8.47-1.22-12.62-2.21s-8.23-2.66-12.37-3.91c-2.81-.85-5.47-2.14-8.18-3.2-3.42-1.35-6.33-4-9.47-6.09-.78-.51-2-.75-2.35-1.45-2-3.51-5.77-5.53-7.69-8.83-2.3-3.94-3.61-8.49-5.14-12.85-.72-2.05-.44-4.58-1.51-6.35-1.16-1.94.6-4.38-1.5-5.93-.24-.18-.09-1 0-1.46.44-3.43-.72-6.61-1.6-10.65-.93 3.57-2 6.38-2.31 9.28s-1.68 5.35-2.35 8.08a22.71 22.71 0 01-3.56 7c-1.93 2.84-3.72 6.37-1.26 10.19.53.82.12 2.28.07 3.45-.37 7.72 1.45 15.33 1.18 23.09-.08 2.39.95 5 .85 7.58a4.71 4.71 0 01-1 2.63c-1.32 1.95-1.78 4.51-4 5.82-2.74 1.64-5.17 3.69-7.74 5.52-3.35 2.37-6.73 4.75-9.91 7.31-4.24 3.4-8.81 6.31-13.08 9.67-3.46 2.72-7.08 5.31-10.66 7.93a24.3 24.3 0 01-9.73 4.36c-5.74 1.2-11.42.8-17.12.77-7.56 0-15.06.58-22.59 1s-15.43-.71-23 .3c-8.74 1.16-17.49-.22-26.09.93-9.39 1.27-18.77.15-28.09 1-3.7.34-7.38.71-11.1.86-1.82.07-2.66-.78-3.21-2.74a22.85 22.85 0 012.35-.28h6c14.86-.32 29.78.05 44.56-1.23 10.58-.92 21.15.28 31.59-.91 10.23-1.17 20.46 0 30.58-1.06 5.06-.51 10.09-.42 15.11-.84a19.43 19.43 0 009-3.54c4.09-2.74 7.92-5.84 11.88-8.78q6.49-4.83 13-9.63c2.67-2 5.33-4 8-6a110.07 110.07 0 0012.11-9.9c-1.92 0-3.84-.08-5.76-.1s-4 0-6 0c-.31 0-.78 0-.9.18-1.71 2.7-4.41 1.69-6.77 1.78-2.66.11-5.34-.08-8 .05-5 .25-10 .78-15.09.94s-10.47-.71-15.46.21c-7.41 1.37-14.84-.14-22.1 1-8.89 1.36-17.78.17-26.59 1-3.53.34-7.2 1.46-10.56.67-4.09-1-8.09-.59-12.16-.86-2-1.65-1.46-4-1.64-6.2-.22-2.7-.77-5.39-.94-8.09s.56-5.51-.16-8c-1.4-4.72-.12-9.51-1-14.1-1-5.05-.1-10.21-1.09-15.07-.9-4.44 0-8.85-.91-13.1-1-4.88-.17-9.85-1.06-14.58-.87-4.58-.58-9.08-.84-13.61a11.49 11.49 0 00-.36-2.21c-.64-2.29.71-4.09 1.57-5.95.71-1.52 2.19-2 3.84-2 6.87-.29 13.73-.92 20.59-.87 3.62 0 7-1.22 10.59-1.13s7.48.68 11-.14c5.24-1.22 10.53 0 15.59-1 5.74-1.11 11.52 0 17.09-1 5.74-1 11.51 0 17.08-1s11.21 0 16.58-1c4.76-.94 9.42-.59 14.12-.78 2.92-.11 5.33 2.53 5.55 5.49.21 2.71.78 5.39.94 8.09s-.54 5.82.16 8.47c1.22 4.55.08 9.2 1 13.59 1.28 6 .48 12 1 18.59 1-.57 2.18-.81 2.42-1.4 1.29-3.31 3.68-6.08 3.62-10.08 0-3.17 1.33-6.37 2.12-9.55.15-.59.68-1.14.68-1.7 0-5.16 1.69-10.06 2.23-15.15.25-2.34.24-4.87.94-7.06.77-2.41.57-4.77 1-7.12.24-1.47.79-2.59.08-4.25-.51-1.17.57-3 .81-4.52s.18-2.91.45-4.33c.44-2.3 1.26-4.54 1.53-6.85.67-5.63 2.33-11 3.61-16.49a75.24 75.24 0 014.91-13.49c3.1-7 6.94-13.71 13.26-18.5 1.14-.86 2.21-2 3.5-2.41 3.32-1 5.84-3.39 9.13-4.55 3.09-1.08 6.25-1.81 9.35-2.74 2.41-.72 5.07-.77 7.53-1.22 8.37-1.53 16.75-.62 25.12-.81s16.66 0 25-.09c2.19 0 4.38-.76 6.58-.91s4.67 0 7 0h2.36l-5 7c-12.58 0-25.4-.08-38.22 0-3.7 0-7.38.76-11.09.92s-7.71-.36-11.48.15a80.64 80.64 0 00-11.1 2.16 48.12 48.12 0 00-23.57 15.85c-5.22 6.67-7.72 14.46-10.64 22.13a2.14 2.14 0 00-.23.9c.39 4.59-1.31 9-1.12 13.59.36 8.82.24 17.67.06 26.5-.14 7.06 1.52 14 1.2 21.09-.1 2.23 1 4.64.85 7.08s.75 4.75 1.17 7c1.14 6.21 2.26 12.54 5.79 18.07 1.72 2.69 5.95 7.71 8.43 9.48 1.3.93 2.45 2.07 3.77 3 4.92 3.35 10.58 5 16.09 7 5.16 1.85 10.52 2.83 15.85 4a121.87 121.87 0 0012.64 2.21 65.78 65.78 0 017.59.89c2.54.6 5.17.43 7.58 1 4.71 1.17 9.54.06 14.08 1 6.07 1.28 12.17 0 18.1 1 9.71 1.55 19.41.64 29.11.84s19.33.05 29 .05c9.83 0 19.66.07 29.49-.05 2.87 0 5.72-.75 8.59-.92s5.61 0 8.71 0V459c0-4.66 2.87-7.5 6.42-9.69a3.11 3.11 0 014 .68c.4.48.88.88 1.59 1.58 1.51-1.61 2.87-3 5.13-2.52 3.27.72 5.19-1 6.3-3.9.27-.72.68-1.38 1.27-2.55.18 1.7.3 2.94.46 4.48h21.9c3.34 0 3.42-.11 4.26-3.9h102.47v3.67h25c.15-.9.3-1.82.5-3.09a11.59 11.59 0 011.68 2.13c1.27 3.05 3.11 4.94 6.79 4.26a3.89 3.89 0 013.7.74 2.09 2.09 0 003-.75c1-1.51 1.85-.9 3.18-.12 4 2.37 6.76 5.33 6.4 10.39-.18 2.49-.08 5 0 7.5s.71 3.15 3.18 3.16c6.67 0 13.43-.69 20 .19 8.73 1.18 17.41.62 26.11.79 9 .17 18 0 27 0 8.83 0 17.66-.07 26.49 0 3.59 0 6.94-1.45 10.6-1.11s7.49.76 11-.1c4.26-1.05 8.44-.43 12.62-.87 2.2-.23 4.27-1.19 6.6-1a18.46 18.46 0 006.62-.8c3.19-.92 6.71-.64 10-1.2a108.21 108.21 0 0011.12-2.18c3.53-1 7.42-1.12 10.68-3.26v-34.94c0-2.15 1-4.46.46-6.39-.67-2.33-.28-4.54-.45-6.78s0-4.34 0-6.5v-7c0-2.34-.17-4.68 0-7 .68-7.42-1.24-14.69-1.13-22.09 0-2.15-1-4.27-1-6.58a27 27 0 00-1-6.08c-.46-2.13-1.11-4.21-1.63-6.32s-.83-4-1.37-5.94a33.81 33.81 0 00-2-6.15c-2.53-5.05-5-10.18-9-14.28-1.28-1.31-2.63-2.55-3.87-3.9a18.82 18.82 0 00-6.95-5c-1.57-.62-2.9-1.82-4.44-2.55a47.09 47.09 0 00-8.76-3 113.57 113.57 0 00-12.63-2.28c-2.87-.37-5.89-.08-8.58-.89-4.71-1.44-9.43-.48-14.25-1l-3.95-7.62c3.58.05 6.67-.84 9.86.61 1.24.56 2.94.34 4.4.18 5.6-.65 11.06.8 16.58 1.17 3.89.26 7.65 2 11.68 1.86 4.18 2.36 9.45 2.14 13.18 5.66a11.24 11.24 0 003.73 1.8 28.15 28.15 0 0111.75 8.92 80.74 80.74 0 019.46 16c1.22 2.59 1.75 5.29 2.71 7.88s2.19 5.17 2.18 8.14c0 1.81.81 3.63 1.3 5.43.12.44.55.81.59 1.24.37 4 .33 8.13 1.12 12.07 1 5 .13 10.2 1.09 15.07 1.18 5.92.7 11.76.76 17.62.16 17.16 0 34.33 0 51.5v3.78c3.24-.84 5.61-2.52 8-4.15 1.56-1.06 3.83-1.78 4.54-3.25 1.91-4 6.2-5.87 7.72-10.31 2-5.77 4.3-11.37 4.72-17.53.14-1.9 1.38-3.52 1.09-5.59-.24-1.69-.59-3.61.91-5.09.09-.08 0-.32 0-.49-.55-4.76.93-9.39 1-14.08.11-16.84 0-33.67.06-50.5 0-3.9-1.41-7.62-1.09-11.59s.79-8.17-.11-11.95c-1.06-4.44 0-8.86-.93-13.11-1.19-5.73-.29-11.8-2.89-17.28.35-5-2.52-9.38-3.07-14.25-.15-1.28-1.4-2.4-1.9-3.69a62.56 62.56 0 00-8.14-14.59 47.12 47.12 0 00-10.18-10.2c-2.55-1.81-4.34-4.57-7.63-5.63-2.89-.93-5.37-3.08-8.16-4.41A124.71 124.71 0 00804 234.1c-4-1.23-8.14-2.17-12.25-3a100.86 100.86 0 00-13.66-2.15c-2.16-.15-4.36-1.28-6.58-.83s-4-1-6.1-1.05h-7c-2.17 0-4.44.43-6.48-.09-5-1.26-10-.79-15.52-.94v4.41c0 9.83-.06 19.67 0 29.5 0 2.7-.29 5.36.76 8.16.67 1.78 1.1 4.55-.8 6.51.66 2.51-1 4.65-1.11 7.45h-39.83c-.26-.34-.5-.93-.79-1-1.33-.1-2.66 0-4 0H393.23c-1.34 0-2.67-.06-4 0-.29 0-.53.62-.8 1-5 0-10 .1-15 0-3-.09-6.08.49-9.15-.8-1.31-.56-3.35-.09-5.17.39-2.92.76-6.18.2-9.37.2a22.58 22.58 0 01-2.38-10.35c.13-15 .05-30 .05-45.32-4.35.27-8.55-.53-13 .74-3.23.92-7 .44-10.43.09-2.55-.25-4.67 1-7.09 1.15s-4.67-.32-7.17.73a20.84 20.84 0 01-7 1.05c-4.07.12-7.84 1.45-11.61 2.38-4.3 1.06-8.74 1.92-12.91 3.72-8.26 3.57-16.62 6.73-23.85 12.45-8.71 6.87-15.74 14.79-20.08 25.12a130.87 130.87 0 00-5 14.95c-.59 2-.49 4.17-1.07 6.05-.64 2.07-.28 4.26-1 6.08-1.24 3.22-.62 6.43-.91 9.63-.19 2-.78 4-.94 6.08s.06 4.34-.08 6.49a5.45 5.45 0 01-1 2.57c-2.34 3.35-3.44 7.31-4.66 11.05s-3.43 7.43-3.32 11.63c-1.49 1.84-.76 4-1 6.08-.35 2.64-1 5.25-1.49 7.87.11-.01-.2-.04-.37-.04zm301.69 121.57a25.16 25.16 0 001.34 3.45 12.62 12.62 0 006.76 5.86 18.87 18.87 0 014.69 2 7.45 7.45 0 005 1.19c1.37-.14 3-.58 4.06.91 1.41-1.77 2.76-1 4.2 0a1.7 1.7 0 001.46 0c1.26-.65 2.2-1.52 4-.57.81.44 2.53-1.13 3.91-1.33a10.72 10.72 0 004-1.38c2.79-1.58 4.76-3.83 6.92-6a12.82 12.82 0 002.51-4.49c.58-1.4-.88-2.09-.5-3.36.54-1.77-.53-3-1.79-4.23a22.28 22.28 0 00-15.76-6.59c-1.33 0-2.94.48-3.94-.09-2.71-1.54-5.17-.43-7.71.1-1.21.25-2.38.73-3.59 1a23.5 23.5 0 00-3.65.81c-4.64 1.61-7.07 5.64-10.35 8.69-.99.78-1.05 2.51-1.56 4.03zm19.78-38.48c-3.34-.28-6.18-.12-9-.93-2.62-.75-5.62-.16-8.46-.16s-6.28-.76-8.91.21-5.45.05-7.88 1.64c4.14-.53 8.05.88 12.05 1.08 5.48.28 11 0 16.49.12 1.99.05 3.59-.62 5.71-1.96z"/><path d="M754.43 315.71a27.71 27.71 0 010 3.28c-.19 1.41.74 3.13-.67 4.19a10.31 10.31 0 01-3.75 1.75 27.4 27.4 0 01-4.55.92 23.18 23.18 0 00-6.53 1.35 25.33 25.33 0 01-12.59.66c-6.92-1.34-13.77-.74-20.62-.74q-179-.12-358-.07c-3.56 0-7.21.47-10.56-1-2.49-1.11-5.19-.87-7.73-1.85-5-1.91-5.07-1.67-5-6.5 0-.47.1-.93.19-1.74 7 2 14.2.16 21.05 1.34 5.93 1 11.76.73 17.62.74q70.49.15 141 .06c20.17-2 40.39-.54 60.58-1 11.65 2 23.39.74 35.08.95s23.67.05 35.5.05h71c11.83 0 23.66.08 35.49-.05 3.69 0 7.38-.62 11.06-1 .34-.11.65-.64 1.43-1.34zm-59-33.65c-.26.33-.5.93-.79.95-1.33.11-2.66.05-4 .05H393.23c-1.34 0-2.67.06-4-.05-.29 0-.53-.62-.8-.95zm-213.81 21.17h98.66v.51c0 .08-.24.31-.36.31H481.6c.01-.27.01-.55.02-.82zM213.2 362c.09 2.42.45 4.77-.65 7.17-.9 1.94 0 4.28-.89 6.61-.79 2-.67 4.65-1.14 7-.42 2.11.27 4.47-2.2 6.65 1.86-9.43 2.62-18.56 4.88-27.43zm169.94-69.08a50.47 50.47 0 012.79-5.78c1.23-1.91 3-2.93 5.49-1.68-.34.38-.6 1-.94 1-3.1.39-4.52 2.31-5.2 5.17-.16.65-1 1.12-1.61 1.68zm82.57 2.27c-.19-.65-.3-.81-.26-.93.19-.79-.63-2.08 1-2.18a1 1 0 01.81.33c.66 1.17-.41 1.66-1 2.33-.11.11-.26.19-.55.45zm63.72.37a14.37 14.37 0 010-2.53 1.76 1.76 0 01.77-.94.84.84 0 01.84.17c.22.37.47 1 .31 1.27a12.45 12.45 0 01-1.92 2.03zM427.41 299a2.13 2.13 0 01-2.12 2.08zm269.28-12.06h-4.09a4 4 0 01.25-.77c1.22.17 2.75-.83 3.84.77zm-161.47 5.65a6 6 0 01-.73-1.76c0-.26.8-.79.9-.72a2.75 2.75 0 011 1.2c.05.17-.52.58-1.17 1.28zm-92.63-5l-1.54 2.67c-1.47-1.79.24-2.26 1.54-2.67zm44.18 7.31c-.11-.28-.4-.68-.31-.8.5-.66 1.08-1.26 1.64-1.88.11.11.34.29.32.33-.42.79-.86 1.56-1.32 2.32-.03.06-.21.02-.33.03zm10.45-.37c.65.69 1.22 1.1 1.16 1.28a2.8 2.8 0 01-1 1.2c-.1.07-.9-.47-.9-.72a5.94 5.94 0 01.74-1.76zM542 295.9c-.71.54-1.09 1-1.55 1.1-.25.06-.65-.45-1-.71a4.82 4.82 0 011.05-1.18c.16-.11.67.35 1.5.79zm80-5c-.71.54-1.09 1-1.55 1.1-.25.06-.65-.45-1-.71a4.82 4.82 0 011.05-1.18c.16-.11.67.35 1.5.79zm-38.41 6.68c-.53-.71-1-1.09-1.1-1.55-.06-.25.46-.64.71-1a4.79 4.79 0 011.18 1c.11.25-.38.76-.79 1.55zm-16-11.05c.44.8.9 1.31.79 1.49a4.79 4.79 0 01-1.18 1c-.25-.33-.77-.72-.71-1 .11-.4.57-.78 1.1-1.49zm60.41 9.31c-.7.66-1.11 1.23-1.28 1.16a2.76 2.76 0 01-1.21-1c-.07-.1.47-.9.72-.89a6 6 0 011.77.73zm-246.18 1.47c-.59.91-1.19 1.82-2 3.08-.82-2.32.5-2.75 2-3.08zM677.55 300c-.17.43-.2.66-.28.68s-.55.12-.66 0a7.22 7.22 0 01-1.15-1.43c-.11-.2.08-.58.14-.87.33.11.76.13 1 .35a9 9 0 01.95 1.27zm-4.29-12.79v2.66l-.51.05c-.12-.87-.25-1.75-.37-2.62zm-178.99 3.43l-1.34 1.41c-.17-.41-.58-1.05-.45-1.2a3.78 3.78 0 011.43-.76s.26.39.36.55zm18.96.36a7.64 7.64 0 011.19-.91c.18-.09.54.17.82.27l-1.31 1.7zm149.29-1.14a6.7 6.7 0 01.88 1.21c.09.18-.18.53-.29.81l-1.66-1.34zm-135.88-1.75a7.7 7.7 0 01-1.19.92c-.18.09-.54-.17-.82-.27l1.3-1.7zm110.62 4.1v2.66l-.51.05c-.12-.87-.25-1.75-.37-2.62zm-27.4-5.29a7.55 7.55 0 01.54 1.39c0 .22-.3.5-.47.75l-1.3-1.7zm21.77 1.08c-.36.55-.52.81-.69 1.06l-1.32-1.68c.28-.1.64-.37.82-.28a6.64 6.64 0 011.19.9zm19.97 1.89v-2.66l.52-.05c.13.89.25 1.77.37 2.65zm-61.97-1.96L589 289l-1.37-1.62c.27-.12.61-.39.8-.31a7 7 0 011.2.86zm-37.04 5.49a6.62 6.62 0 01-1.36.6c-.21.05-.5-.27-.76-.42l1.63-1.38zm-105.1 7.82c-.11-2.51-.06-3.71 1.87-2.9zm-37.9-9.79a6.59 6.59 0 01-1.38.57c-.22.05-.5-.28-.76-.44l1.66-1.34zm21.05-.34a7.7 7.7 0 01-1.19.92c-.18.09-.54-.17-.82-.27l1.3-1.7zm141.97 3.76v-2.66h.52l.36 2.68zm68.91-5.01a6.7 6.7 0 01.88 1.21c.09.18-.18.53-.29.81l-1.66-1.34zm13.86 11.38l-1.87-2.9c1.93-.81 1.98.39 1.87 2.9zm-199.74-5.13a7.7 7.7 0 01-1.19.92c-.18.09-.54-.17-.82-.27l1.3-1.7zm-22.64.75c-.12-.07-.53-.28-.51-.32a3.76 3.76 0 01.75-1.43c.14-.14.78.27 1.2.43-.44.46-.96.85-1.44 1.32zm-224.74 96.35v2.66l-.51.05-.37-2.62z"/><ellipse cx="206.93" cy="400.56" rx=".35" ry="2.12"/><path d="M205.6 407.89v-2.66l.52-.05.37 2.66zm453.26-114.97a7.55 7.55 0 01.54 1.39c0 .22-.3.5-.47.75l-1.3-1.7zm-43.18 2.99a15.33 15.33 0 01-.91-2.06c0-.21.3-.52.47-.79a7.74 7.74 0 011.16 1c.09.16-.19.56-.72 1.85zm-58.04-4.38l-.86.37c-.12-.28-.37-.59-.31-.82s.4-.58.62-.86c.12.27.23.55.55 1.31zm21 0l-.86.37c-.12-.28-.37-.59-.31-.82s.4-.58.62-.86c.12.27.23.55.55 1.31zm20.36-1.61a6.21 6.21 0 01.37 1.38c0 .25-.3.51-.47.76a5.56 5.56 0 01-.46-1.25c0-.23.33-.5.56-.89zm98.72 2.53c-.09-.9-.16-1.44-.17-2 0-.05.41-.11.63-.17a8.32 8.32 0 01.23 1.29c.01.19-.25.36-.69.88zm-273.72-.8c.2.88.46 1.35.35 1.7s-.62.48-1 .71a4.11 4.11 0 010-.93 11.93 11.93 0 01.65-1.48zm21.64.94l-.55 1.31c-.22-.29-.54-.55-.62-.87s.19-.54.31-.81zm63.59 1.41c-.37-.23-.77-.38-.76-.49a6.57 6.57 0 01.31-1.31c.22.12.61.24.62.37a7.09 7.09 0 01-.17 1.43zm190.28-.92l-.51.92a15 15 0 01-.56-1.45c0-.11.29-.31.44-.46zm-316.08-.02c-.15.76.5 1.91-1 2 .16-.76-.49-1.92 1-2zm179.21 3.47l-.86.37c-.12-.28-.37-.59-.31-.82s.4-.58.62-.86c.12.27.23.55.55 1.31zm85.59.47c-.37-.23-.77-.38-.76-.49a6.57 6.57 0 01.31-1.31c.22.12.61.24.62.37a7.09 7.09 0 01-.17 1.43zm51.49.45c-.09-.9-.16-1.44-.17-2 0-.05.41-.11.63-.17a8.32 8.32 0 01.23 1.29c.01.19-.25.36-.69.88zm-181.36-1.27l.57-1.12c.17.25.5.52.47.75a5.15 5.15 0 01-.47 1.25zm183.15 1.9l-.51.92a15 15 0 01-.56-1.45c0-.11.29-.31.44-.46zM405 297.65c.2.88.46 1.35.35 1.7s-.62.48-1 .71a4.11 4.11 0 010-.93 11.93 11.93 0 01.65-1.48zm71.51-1.47l-.58.88a5.56 5.56 0 01-.46-1.25c0-.23.3-.5.46-.75zm-6.51 1.47c.2.88.46 1.35.35 1.7s-.62.48-1 .71a4.11 4.11 0 010-.93 11.93 11.93 0 01.65-1.48zm162.72 2.8c-.09-.9-.16-1.44-.17-2 0-.05.41-.11.63-.17a8.32 8.32 0 01.23 1.29c.01.19-.25.36-.69.88zm-169.21-12.52l-.58 1.13c-.16-.25-.49-.53-.46-.76a5.49 5.49 0 01.46-1.24zm142 8.25l-.58.88a5.56 5.56 0 01-.46-1.25c0-.23.3-.5.46-.75.21.39.41.79.58 1.12zM484 286.92a6.21 6.21 0 01.37 1.38c0 .25-.3.51-.47.76a5.56 5.56 0 01-.46-1.25c0-.23.33-.5.56-.89zm21.23 2.08c-.37-.23-.77-.38-.76-.49a6.57 6.57 0 01.31-1.31c.22.12.61.24.62.37a7.09 7.09 0 01-.17 1.43zm-123.8 8.06c.16-.76-.49-1.92 1-2-.15.76.5 1.94-1 2zm166.21-8.53l-.86.37c-.12-.28-.37-.59-.31-.82s.4-.58.62-.86c.12.27.23.55.55 1.31zm149.87-.45l-.51.92a15 15 0 01-.56-1.45c0-.11.29-.31.44-.46zm-245.87 2.51l-.55 1.31c-.22-.29-.54-.55-.62-.87s.19-.54.31-.81zm21 0l-.55 1.31c-.22-.29-.54-.55-.62-.87s.19-.54.31-.81zM421 286.65c.2.88.46 1.35.35 1.7s-.62.48-1 .71a4.11 4.11 0 010-.93 11.93 11.93 0 01.65-1.48zm-236.6 200.2a8.08 8.08 0 01-1.4.15c-.14 0-.25-.41-.38-.63a7.77 7.77 0 011.31-.31c.07.02.24.43.47.79zm415.53-182.79a2.57 2.57 0 01.32.67c0 .08-.2.22-.32.33a3.11 3.11 0 01-.31-.67c-.02-.09.2-.22.31-.33zm-195.5-3.56l-.59.47c-.06-.21-.23-.56-.16-.61a2.74 2.74 0 01.75-.3zm43 0l-.59.47c-.06-.21-.23-.56-.16-.61a2.74 2.74 0 01.75-.3zm22 0l-.59.47c-.06-.21-.23-.56-.16-.61a2.74 2.74 0 01.75-.3zm26.36-.3l.64.36c-.11.11-.24.33-.32.31a3.18 3.18 0 01-.68-.31zm138.56.44c-.11.12-.28.33-.31.31a4.35 4.35 0 01-.61-.45l.45-.44zM204.58 411.7l.35-.64c.12.11.34.24.32.33a2.73 2.73 0 01-.32.67zm218.85-117.2l-.59.47c-.06-.21-.23-.56-.16-.61a2.74 2.74 0 01.75-.3zm232.92 6.14c-.11.12-.28.33-.31.31a4.35 4.35 0 01-.61-.45l.45-.44zM420.43 289.5l-.59.47c-.06-.21-.23-.56-.16-.61a2.74 2.74 0 01.75-.3zm59.86 14.91l-.36.65c-.11-.11-.33-.25-.31-.33a2.9 2.9 0 01.31-.67zM181 488.14c.11.12.32.28.3.32a4.84 4.84 0 01-.44.6l-.45-.45zm-.57 1.36l-.59.47c-.06-.21-.23-.56-.16-.61a2.74 2.74 0 01.75-.3zm-3.43 1.64c.11.12.32.28.3.32a4.84 4.84 0 01-.44.6l-.45-.45zm-.57 1.36l-.59.47c-.06-.21-.23-.56-.16-.61a2.74 2.74 0 01.75-.3zm-3.43 1.64c.11.12.32.28.3.32a4.84 4.84 0 01-.44.6l-.45-.45zm-.57 1.36l-.59.47c-.06-.21-.23-.56-.16-.61a2.74 2.74 0 01.75-.3zm-2.43.64c.11.12.32.28.3.32a4.84 4.84 0 01-.44.6l-.45-.45zm423.58-202.73l.35-.35a2.57 2.57 0 01.32.67c0 .08-.2.22-.32.33zM169.43 497.5l-.59.47c-.06-.21-.23-.56-.16-.61a2.74 2.74 0 01.75-.3zm-3.43 1.64c.11.12.32.28.3.32a4.84 4.84 0 01-.44.6l-.45-.45zm-.57 1.36l-.59.47c-.06-.21-.23-.56-.16-.61a2.74 2.74 0 01.75-.3zm-25.5 2.56a2.57 2.57 0 01.32.67c0 .08-.2.22-.32.33a3.11 3.11 0 01-.31-.67c-.02-.09.2-.22.31-.33zm-53.64 2.64l-.36.36a3.11 3.11 0 01-.31-.67c0-.09.2-.22.31-.33zm-21.21 1.21l-.65-.35c.12-.11.25-.33.33-.31a2.9 2.9 0 01.67.31z"/></g><g id="Layer_2" data-name="Layer 2"><path class="cls-3" d="M830.43 704.06v29l-26-1q.51-12 1-24a19.55 19.55 0 017-6c2.79-1.41 14.34.66 18 2zm-29 34s48-3 49 3-49 2-49 2z"/><path d="M801.49 735.55h2.94l3.15-.07 6.28-.09c4.19 0 8.38 0 12.58.1s8.39.31 12.61.72a63.91 63.91 0 016.35.92 21.51 21.51 0 013.23.91 7.77 7.77 0 011.69.87 2.56 2.56 0 01.43.34 3.24 3.24 0 01.44.46 2.6 2.6 0 01.55 1.44 2.34 2.34 0 01-.5 1.6 3.29 3.29 0 01-.93.8 8 8 0 01-1.74.73 23.3 23.3 0 01-3.26.62c-2.13.26-4.24.36-6.35.41-4.2.09-8.39 0-12.56-.2-8.35-.37-16.67-1-25-1.84h-.12v-.11l.11-5zm-.06 2.51l.12 5-.11-.12c8.33.43 16.67.68 25 .66 4.15 0 8.31-.11 12.44-.4 2-.15 4.11-.35 6.1-.69a18.85 18.85 0 002.85-.68 4.7 4.7 0 001.12-.52.65.65 0 00.24-.21v.15c0 .06 0 0-.33-.21a5.67 5.67 0 00-1.12-.49 18.33 18.33 0 00-2.81-.64 60.27 60.27 0 00-6.07-.58c-4.09-.21-8.24-.2-12.37-.12s-8.29.27-12.43.49l-6.22.39-3.1.22-1.55.12-.77.06h-.72c-.06 0-.07 0 .51-.09a2.47 2.47 0 001.11-.69z"/><path d="M367.43 45.06h350v225h-350zm-290.99 350l7 85 107-4-7-86-107 5z" stroke="#000" fill="#fff"/></g><use width="91" height="91" transform="translate(492.93 109.56)" xlink:href="#Dice_Map_5" id="Layer_3" data-name="Layer 3"/><g id="Layer_4" data-name="Layer 4"><path d="M596.92 452.06a1.49 1.49 0 00-3 0v14m23.51-18.49h-20a1.49 1.49 0 000 3h20a1.49 1.49 0 000-3zm18.4 6.05l-11-3a1.49 1.49 0 00-.79 2.87l11 3a1.49 1.49 0 00.79-2.87z"/><path d="M605 449.61c1.4-1.32-.71-3.42-2.11-2.11l-1.77 1.67a1.35 1.35 0 00-.72-.19 7 7 0 00-6.78 8.33 1.5 1.5 0 002.48.66"/><path class="cls-3" d="M596.92 452.06a1.49 1.49 0 00-3 0v14m23.51-18.49h-20a1.49 1.49 0 000 3h20a1.49 1.49 0 000-3zm18.4 6.05l-11-3a1.49 1.49 0 00-.79 2.87l11 3a1.49 1.49 0 00.79-2.87z"/><path class="cls-3" d="M605 449.61c1.4-1.32-.71-3.42-2.11-2.11l-1.77 1.67a1.35 1.35 0 00-.72-.19 7 7 0 00-6.78 8.33 1.5 1.5 0 002.48.66"/><path class="cls-3" d="M596.42 452.06a.94.94 0 00-1-1 1 1 0 00-1.1 1l-.12 4.66-.25 9.32-.25-9.32-.13-4.66a1.84 1.84 0 01.51-1.34 2 2 0 011.34-.56 2 2 0 011.39.49 1.94 1.94 0 01.61 1.39z"/><path class="cls-3" d="M617.43 448.07l-12.31-.13-6.16-.06h-1.54a1.09 1.09 0 00-1 .58 1.4 1.4 0 000 1.23 1.13 1.13 0 001 .62l12.32.12 6.16.06h1.54a1.34 1.34 0 001.22-.72 1.66 1.66 0 000-1.46 1.38 1.38 0 00-1.25-.75zm0-.5a1.41 1.41 0 011.28.73 1.7 1.7 0 010 1.51 1.43 1.43 0 01-1.28.78h-1.54l-6.16.06-12.32.13a1.65 1.65 0 01-1.49-.87 1.92 1.92 0 010-1.73 1.68 1.68 0 011.5-.93H599l6.16-.07 12.31-.12zm18.27 6.54l-7.7-2.23-1.93-.56-1-.28a2.21 2.21 0 00-.85-.15 1.24 1.24 0 00-1 1.12 1.14 1.14 0 00.83 1.24l7.71 2.23 1.92.56 1 .28a2.25 2.25 0 00.95.15 1.46 1.46 0 001.19-1.34 1.38 1.38 0 00-1-1.51zm.13-.49a1.43 1.43 0 011.08 1.51 1.6 1.6 0 01-1.24 1.47 2.5 2.5 0 01-1-.13l-1-.25-1.94-.5-7.77-2a1.64 1.64 0 01-1.26-1.77 1.82 1.82 0 011.46-1.69 2.59 2.59 0 011.11.14l1 .24 1.94.5 7.77 2z"/><path class="cls-3" d="M604.67 449.24a.85.85 0 00.23-1 1.2 1.2 0 00-1-.68c-.42 0-.74.3-1.22.72l-1.31 1.18-.19.17-.22-.12a1.23 1.23 0 00-.79-.15 5.18 5.18 0 00-1 .08 6.24 6.24 0 00-1.82.58 6.78 6.78 0 00-2.81 2.63 6.92 6.92 0 00-1 3.78c0 .33.06.66.11 1a1.19 1.19 0 00.55.76 1.62 1.62 0 001.85-.16 1.65 1.65 0 01-1.89.23 1.26 1.26 0 01-.64-.8c-.06-.33-.12-.66-.15-1a7.32 7.32 0 013.71-6.88 6.9 6.9 0 012-.72 6.28 6.28 0 011-.13 1.91 1.91 0 011.15.19l-.4.05 1.26-1.24a7.29 7.29 0 01.68-.63 1.73 1.73 0 011.06-.37 2.1 2.1 0 011.83 1.12 1.88 1.88 0 01.18 1.15 1.93 1.93 0 01-.56 1z"/></g></svg>